<svg xmlns="http://www.w3.org/2000/svg" width="56" height="56" viewBox="0 0 56 56">
  <rect id="Rectangle_25" data-name="Rectangle 25" width="56" height="56" rx="9" fill="#fff"/>
  <path id="Icon_awesome-inbox" data-name="Icon awesome-inbox" d="M29.674,13.9,24.152,5.617A2.508,2.508,0,0,0,22.065,4.5H8.03A2.508,2.508,0,0,0,5.943,5.617L.421,13.9A2.508,2.508,0,0,0,0,15.291v6.764a2.508,2.508,0,0,0,2.508,2.508H27.587a2.508,2.508,0,0,0,2.508-2.508V15.291a2.508,2.508,0,0,0-.421-1.391ZM8.477,7.844h13.14l4.458,6.688H19.645l-1.672,3.344H12.122L10.45,14.532H4.019Z" transform="translate(12.953 13.468)" fill="#508ff4"/>
</svg>
